<?xml version="1.0" encoding="utf-8"?>
<svg xmlns="http://www.w3.org/2000/svg" viewBox="0 0 1024 1024">
  <g transform="matrix(1, 0, 0, 1, 265.997349, 297.000004)" style="transform-origin: 246.109px -4e-06px;">
    <path fill="#E44342" d="M -332.629 -359.726 C 78.314 -230.897 848.361 655.112 773.897 736.978 C -558.089 969.563 -435.438 845.088 -332.629 -359.726 Z" style="stroke-width: 2;"/>
    <path fill="#3C3A40" d="M -339.569 -359.727 C 1188.546 -667.48 788.223 -189.12 785.461 730.04 C 775.299 722.492 533.736 492.612 229.796 180.115 C 229.796 180.115 333.52 169.683 230.1 96.461 C 224.924 92.793 202.587 75.63 176.334 68.297 C 157.333 62.99 128.53 59.719 101.81 66.535 C 94.76 57.277 -336.119 -354.447 -339.569 -359.727 Z" style="stroke-width: 2;"/>
    <g transform="matrix(1, 0, 0, 1, 511.740181, 97.230699)">
      <path fill="#E44342" d="M -279.4 9.656 C -278.3 7.114 -259.51 -29.718 -256.34 -34.616 C -218.98 -92.518 -157.52 -131.45 -86.72 -115.73 C -31.59 -103.48 22.666 -48.34 27.544 9.628 L 26.64 21.593 C 26.172 21.401 12.832 -14.144 10.174 -17.672 C -13.086 -48.544 -53.318 -61.3 -89.288 -46.038 C -151.12 -19.806 -150.79 49.036 -163.68 103.81 C -166.3 114.93 -170.63 124.854 -174.48 135.506 C -209.32 98.562 -278.98 11.51 -279.4 9.656 Z" style="stroke-width: 2;"/>
      <path d="M -175.48 132.506 C -171.63 121.854 -167.3 111.93 -164.68 100.81 C -151.79 46.036 -152.12 -22.806 -90.288 -49.038 C -54.318 -64.3 -14.086 -51.544 9.174 -20.672 C 11.832 -17.144 25.612 8.058 26.08 8.25 L 26.544 6.628 C 27.158 12.588 27.044 18.056 26.544 24.006 C -9.156 -53.67 -98.34 -55.47 -127.45 28.05 C -142.35 70.786 -137.54 115.392 -125.29 157.932 C -124.61 160.308 -121.17 166.492 -123.67 168.19 C -127.37 167.24 -130.95 165.922 -134.69 165.042 C -138.57 161.52 -144.3 159.768 -148.68 156.836 C -158.33 150.386 -167.84 141.238 -175.48 132.506 Z" style="stroke-width: 2; fill: rgb(228, 67, 66);"/>
    </g>
    <path fill="#FFE400" d="M 515.486 138.643 C 526.036 114.549 557.078 117.333 568.392 138.643 C 575.274 154.199 569.262 171.053 553.346 177.875 C 529.39 188.143 502.96 161.887 515.486 138.643 Z" style="stroke-width: 2;"/>
    <path fill="#3C3A40" d="M -44.13 216.069 C -38.92 142.887 22.57 84.817 93.65 74.225 C 142.38 66.963 178.139 77.045 222.55 109.267 C 291.027 159.349 304.391 193.563 336.26 229.737 C 343.9 238.469 353.41 247.617 363.06 254.067 C 367.44 256.999 373.17 258.751 377.05 262.273 C 358.52 262.221 342.23 262.733 323.84 265.421 C 286.37 272.203 249.76 280.787 214 294.101 C 192.68 302.131 169.71 312.047 151.97 326.565 C 152.18 275.923 116.19 212.925 73.95 186.893 C 31.15 160.517 -11.32 174.117 -36.57 216.069 C -39.09 215.775 -41.6 215.965 -44.13 216.069 Z" style="stroke-width: 2;"/>
    <path fill="#E2CC39" d="M 323.84 265.421 C 342.23 262.733 380.72 250.833 411.431 263.844 C 430.993 273.937 439.406 313.999 413.646 338.549 C 409.26 342.725 399.8 350.249 393.54 350.225 C 392.36 349.889 261.729 384.89 187.436 401.869 C 157.849 400.483 124 356.449 151.97 326.565 C 169.71 312.047 192.68 302.131 214 294.101 C 249.76 280.787 286.37 272.203 323.84 265.421 Z" style="stroke-width: 2;"/>
    <path d="M 180.91 397.419 C 184.526 375.377 259.36 354.451 273.2 350.585 C 304.46 341.853 347.522 332.883 380.25 333.394 C 391.087 333.563 400.49 339.681 393.54 350.225 C 337.602 390.392 176.409 419.946 180.91 397.419 Z" style="stroke-width: 2; fill: rgb(60, 58, 64);"/>
    <path fill="#FFE400" d="M -66.956 232.334 C -56.406 208.24 -25.364 211.024 -14.05 232.334 C -7.168 247.89 -13.18 264.744 -29.096 271.566 C -53.052 281.834 -79.482 255.578 -66.956 232.334 Z" style="stroke-width: 2;"/>
  </g>
</svg>